<svg xmlns="http://www.w3.org/2000/svg" width="326" height="134.11" viewBox="0 0 326 134.11"><g id="i4twins-v2" transform="translate(-128.5 -162.89)"><g id="text" transform="translate(69 59)"><rect id="Rectangle_1" data-name="Rectangle 1" width="8" height="8" transform="translate(61 180)" fill="#1526cc"/><rect id="Rectangle_2" data-name="Rectangle 2" width="8" height="22" transform="translate(61 191)" fill="#1526cc"/><rect id="Rectangle_3" data-name="Rectangle 3" width="8" height="8" transform="translate(76 180)" fill="#1526cc"/><rect id="Rectangle_4" data-name="Rectangle 4" width="53" height="8" transform="translate(76 192)" fill="#1526cc"/><rect id="Rectangle_5" data-name="Rectangle 5" width="8" height="33" transform="translate(121 180)" fill="#1526cc"/><rect id="Rectangle_7" data-name="Rectangle 7" width="8" height="33" transform="translate(158 180)" fill="#1526cc"/><rect id="Rectangle_6" data-name="Rectangle 6" width="53" height="8" transform="translate(136 180)" fill="#1526cc"/><rect id="Rectangle_10" data-name="Rectangle 10" width="8" height="33" transform="translate(269 180)" fill="#1526cc"/><rect id="Rectangle_12" data-name="Rectangle 12" width="8" height="8" transform="translate(254 180)" fill="#1526cc"/><rect id="Rectangle_13" data-name="Rectangle 13" width="8" height="22" transform="translate(254 191)" fill="#1526cc"/><path id="Rectangle_14" data-name="Rectangle 14" d="M8,0H53a0,0,0,0,1,0,0V8a0,0,0,0,1,0,0H0A0,0,0,0,1,0,8V8A8,8,0,0,1,8,0Z" transform="translate(329 180)" fill="#1526cc"/><rect id="Rectangle_17" data-name="Rectangle 17" width="8" height="8" rx="2" transform="translate(374 198)" fill="#1526cc"/><path id="Rectangle_16" data-name="Rectangle 16" d="M0,0H53a0,0,0,0,1,0,0V0a8,8,0,0,1-8,8H0A0,0,0,0,1,0,8V0A0,0,0,0,1,0,0Z" transform="translate(329 205)" fill="#1526cc"/><path id="Path_3" data-name="Path 3" d="M-7,1H8.333V27H-.686s1.2-10,0-16.667A13.538,13.538,0,0,0-7,1Z" transform="translate(315.667 186)" fill="#1526cc"/><path id="Rectangle_18" data-name="Rectangle 18" d="M0,0H47a8,8,0,0,1,8,8V8a0,0,0,0,1,0,0H0A0,0,0,0,1,0,8V0A0,0,0,0,1,0,0Z" transform="translate(269 180)" fill="#1526cc"/><path id="Rectangle_15" data-name="Rectangle 15" d="M0,0H47.182A5.818,5.818,0,0,1,53,5.818V8a0,0,0,0,1,0,0H8A8,8,0,0,1,0,0V0A0,0,0,0,1,0,0Z" transform="translate(329 192)" fill="#1526cc"/><path id="Path_5" data-name="Path 5" d="M338.281,322.719V299H329v33h11.344l16.5-23.031L371.281,332h12.375V299h-8.594v23.719L359.25,299h-5.844Z" transform="translate(-135.656 -119)" fill="#1526cc"/></g><g id="simulation" transform="translate(234.842 178.75)"><path id="Path_6" data-name="Path 6" d="M29.414,15.2l-.545-.272L25,17.323v2.4l2.18,1.2V19.5a1.214,1.214,0,0,1,.49-.926l3.869-2.4a1.106,1.106,0,0,1,1.09-.054l.545.272,2.779-1.744V12.2l-5.5,3a1.363,1.363,0,0,1-1.035,0Z" transform="translate(-7.736 -3.618)" fill="#1526cc"/><path id="Path_7" data-name="Path 7" d="M22.414,11.425l-.545-.272L18,13.55v2.4l2.725,1.526v-1.8a1.214,1.214,0,0,1,.49-.926l3.869-2.4a1.106,1.106,0,0,1,1.09-.054l.545.272,1.635-.872v-3L23.4,11.37a1.038,1.038,0,0,1-.981.054Z" transform="translate(-4.55 -2.025)" fill="#1526cc"/><path id="Path_8" data-name="Path 8" d="M12.815,11.525a1.214,1.214,0,0,1,.49-.926l3.869-2.4a1.106,1.106,0,0,1,1.09-.054l.545.272,5.177-2.834-2.18-1.253a.5.5,0,0,0-.545,0L9,11.2l3.815,2.125Z" transform="translate(-0.455 0)" fill="#1526cc"/><path id="Path_9" data-name="Path 9" d="M39,8.1v2.725l2.507-1.362Z" transform="translate(-14.106 -1.752)" fill="#1526cc"/><path id="Path_10" data-name="Path 10" d="M8,18.7v2.016l2.343,1.2a1.641,1.641,0,0,1,.926,1.471v.49a1.62,1.62,0,1,1-1.09,3.052A1.64,1.64,0,0,1,9.2,24.858a1.592,1.592,0,0,1,.981-.981v-.49a.524.524,0,0,0-.327-.49L8,21.915V33.468a.572.572,0,0,0,.272.49l12.262,6.866V39.354l-5.123-2.779a1.571,1.571,0,0,1-.872-1.417V33.141a.572.572,0,0,0-.272-.49L12.36,31.507a1.773,1.773,0,1,1,0-2.507,1.753,1.753,0,0,1,.49,1.526l1.962,1.2a1.626,1.626,0,0,1,.817,1.417v2.016a.572.572,0,0,0,.272.49l4.632,2.507V32.869L15.411,30.09a1.571,1.571,0,0,1-.872-1.417v-1.09a1.62,1.62,0,1,1,1.09,0v1.09a.572.572,0,0,0,.272.49l4.632,2.507V25.675c-.109,0-.163-.054-.272-.109Z" transform="translate(0 -6.575)" fill="#1526cc"/><path id="Path_11" data-name="Path 11" d="M47,12.5v1.58l1.308-.817Z" transform="translate(-17.747 -3.754)" fill="#1526cc"/><path id="Path_12" data-name="Path 12" d="M53,15.9v1.2l1.09-.6Z" transform="translate(-20.477 -5.301)" fill="#1526cc"/><circle id="Ellipse_1" data-name="Ellipse 1" cx="0.545" cy="0.545" r="0.545" transform="translate(23.804 20.463)" fill="#1526cc"/><path id="Path_13" data-name="Path 13" d="M45.534,29.436V18.7L33.272,25.566c-.054.054-.163.054-.272.109v2.67l1.09-.545v-.218a1.635,1.635,0,1,1,1.635,1.635,1.759,1.759,0,0,1-1.144-.436L33,29.545v5.286l4.632-2.507a.572.572,0,0,0,.272-.49V29.872a1.606,1.606,0,0,1,.926-1.471l2.4-1.2v-.218a1.635,1.635,0,1,1,1.635,1.635,1.759,1.759,0,0,1-1.144-.436l-2.4,1.2a.626.626,0,0,0-.327.49v1.962a1.571,1.571,0,0,1-.872,1.417L33,36.084v4.741l12.262-6.866a.572.572,0,0,0,.272-.49V30.635l-2.18,1.09v.218a1.635,1.635,0,1,1-1.635-1.635,1.759,1.759,0,0,1,1.144.436Z" transform="translate(-11.376 -6.575)" fill="#1526cc"/><circle id="Ellipse_2" data-name="Ellipse 2" cx="0.545" cy="0.545" r="0.545" transform="translate(14.54 18.828)" fill="#1526cc"/><circle id="Ellipse_3" data-name="Ellipse 3" cx="0.545" cy="0.545" r="0.545" transform="translate(30.888 19.918)" fill="#1526cc"/><circle id="Ellipse_4" data-name="Ellipse 4" cx="0.545" cy="0.545" r="0.545" transform="translate(29.798 24.822)" fill="#1526cc"/><circle id="Ellipse_5" data-name="Ellipse 5" cx="0.545" cy="0.545" r="0.545" transform="translate(10.725 23.187)" fill="#1526cc"/><circle id="Ellipse_6" data-name="Ellipse 6" cx="0.545" cy="0.545" r="0.545" transform="translate(10.18 18.283)" fill="#1526cc"/><path id="Path_14" data-name="Path 14" d="M41.9,15.2l-5.45,3.488a1.106,1.106,0,0,1-1.09.054l-.545-.272L31,20.868v2.016l.272.163a.5.5,0,0,0,.545,0L41.9,17.38Z" transform="translate(-10.466 -4.983)" fill="#1526cc"/></g><path id="Path_16" data-name="Path 16" d="M427.333,311.667,406,333l-32-32,32-32,64,62.667,32-32L469.333,269,448,290.333" transform="translate(-149 -104)" fill="none" stroke="#1526cc" stroke-width="3"/><path id="simulation_1_" data-name="simulation (1)" d="M31.449,9.024,19.858,2.514a1.505,1.505,0,0,0-1.461,0L6.806,9.024A1.455,1.455,0,0,0,6,10.336V24.314a1.506,1.506,0,0,0,.756,1.312l11.591,6.51a1.505,1.505,0,0,0,1.461,0L31.4,25.626a1.506,1.506,0,0,0,.756-1.312V10.336A1.37,1.37,0,0,0,31.449,9.024ZM26.662,7.46l1.209.656-1.209.807ZM22.63,5.239l2.318,1.312L22.63,7.762ZM21.622,8.317l-1.512.807-.5-.252a1.028,1.028,0,0,0-1.008.05l-3.578,2.22a.992.992,0,0,0-.454.858v1.665l-2.52-1.413V9.983l3.578-2.22.5.252a1.066,1.066,0,0,0,.957,0l4.535-2.473Zm-6.047,3.734,3.578-2.22.5.252a1.066,1.066,0,0,0,.957,0l5.039-2.826V9.529l-2.57,1.615-.5-.252a1.028,1.028,0,0,0-1.008.05l-3.578,2.22a.992.992,0,0,0-.454.858v1.312l-2.016-1.11v-2.17Zm3.78,4.037a.457.457,0,0,1-.5,0l-.252-.151V14.07l3.578-2.22.5.252a1.028,1.028,0,0,0,1.008-.05l5.039-3.23v2.019ZM29.685,9.175l1.008.555-1.008.555ZM18.85,3.372a.457.457,0,0,1,.5,0L21.37,4.533,16.583,7.157l-.5-.252a1.028,1.028,0,0,0-1.008.05l-3.578,2.22a.992.992,0,0,0-.454.858V11.7L7.512,9.73ZM7.26,24.718a.53.53,0,0,1-.252-.454v-10.7l1.713.858a.58.58,0,0,1,.3.454v.454a1.5,1.5,0,0,0,1.008,2.826,1.519,1.519,0,0,0,.907-1.918,1.473,1.473,0,0,0-.907-.908v-.454a1.487,1.487,0,0,0-.857-1.362l-2.167-1.06V10.588l11.339,6.358c.05.05.151.05.252.1V22.5l-4.283-2.321a.53.53,0,0,1-.252-.454V18.713A1.478,1.478,0,0,0,14.97,16.8a1.516,1.516,0,0,0-1.915-.908,1.5,1.5,0,0,0,0,2.826v1.009a1.455,1.455,0,0,0,.806,1.312L18.6,23.608V28.5l-4.283-2.321a.53.53,0,0,1-.252-.454V23.86a1.57,1.57,0,0,0-.756-1.312l-1.764-1.009v-.2a1.512,1.512,0,1,0-1.512,1.514,1.625,1.625,0,0,0,1.058-.4l1.764,1.06a.53.53,0,0,1,.252.454v1.867a1.455,1.455,0,0,0,.806,1.312l4.737,2.574v1.362ZM10.032,16.8a.5.5,0,1,1-.5-.5A.476.476,0,0,1,10.032,16.8Zm3.024.5a.5.5,0,1,1,.5.5A.476.476,0,0,1,13.055,17.3Zm-2.52,4.037a.5.5,0,1,1-.5-.5A.476.476,0,0,1,10.535,21.337Zm20.41,3.381L19.606,31.076v-4.39l4.737-2.574A1.455,1.455,0,0,0,25.15,22.8V20.984a.485.485,0,0,1,.3-.454l2.217-1.11a1.5,1.5,0,1,0-.05-2.119,1.271,1.271,0,0,0-.454,1.009v.2l-2.217,1.11a1.52,1.52,0,0,0-.857,1.362V22.8a.53.53,0,0,1-.252.454l-4.233,2.271V20.63l1.461-.757a1.5,1.5,0,1,0-.05-2.119,1.63,1.63,0,0,0-.4,1.06v.2l-1.008.5V17.047c.1,0,.151-.05.252-.1L31.2,10.588v9.941l-2.469,1.262a1.5,1.5,0,1,0,.05,2.119,1.63,1.63,0,0,0,.4-1.06v-.2L31.2,21.64v2.624a.53.53,0,0,1-.252.454Zm-2.772-6.409a.5.5,0,1,1,.5.5A.476.476,0,0,1,28.173,18.309Zm-6.551.5a.5.5,0,1,1,.5.5A.476.476,0,0,1,21.622,18.814Zm6.551,4.037a.5.5,0,1,1-.5-.5A.476.476,0,0,1,28.173,22.851Z" transform="translate(299.56 180.175)" fill="#1526cc"/><circle id="Ellipse_7" data-name="Ellipse 7" cx="4" cy="4" r="4" transform="translate(293.5 184)" fill="#1526cc"/><g id="Ellipse_8" data-name="Ellipse 8" transform="translate(276.5 201)" fill="none" stroke="#1526cc" stroke-width="1"><circle cx="4" cy="4" r="4" stroke="none"/><circle cx="4" cy="4" r="3.5" fill="none"/></g><text id="No-Code_Platform_For_Industry_4.0_Solutions" data-name="No-Code Platform For Industry 4.0 Solutions" transform="translate(128.5 293)" fill="#1526cc" font-size="15.5" font-family="SegoeUI-Bold, Segoe UI" font-weight="700"><tspan x="0" y="0">No-Code Platform For Industry 4.0 Solutions</tspan></text></g></svg>